
<svg viewBox ="0 0 266 78"  fill="none"  xmlns="http://www.w3.org/2000/svg" width="266px" height="78px" style=""><path fill="#238dd9" d="M27.05,55.1q-3,0-5.05-1.375t-2.05-3.475q0-2.65,3.45-5.3q0.6-0.45,0.9-0.45t0.3,0.2q0,0.5-0.8,0.8q-2.8,2.25-2.8,4.55q0,1.65,1.5,2.775t3.75,1.125q4.9,0,9.25-4.7q2.25-2.45,2.25-5.65t-2.4-4.75q-2-1.4-5.4-1.4q-4.9,0-9.85,2.45q-6.1,2.95-11.025,9.175t-4.925,11.975q0,4.55,3.1,7.025t7.7,2.475q5.25,0,10.3-2.55q3.85-2,6.65-5.1q0.8-0.9,1.25-0.9q0.3,0,0.3,0.525t-0.55,1.075q-2.65,2.8-7.65,5.4q-6.15,3.25-12.375,3.25t-9.275-4.1q-2.05-2.7-2.05-6.45q0-1.65,0.4-3.55q1.35-6.4,7.1-12.45q4.15-4.35,9.85-6.775t10.8-2.425q2.7,0,4.7,0.65q5.45,1.7,5.45,6.85q0,3.15-1.85,5.45q-4.6,5.65-10.95,5.65z M55.1085,54.05l0.7-0.15q0.55,0,1.05,0.45t0.5,0.7t-3.1,4.825t-3.1,6.375q0,0.15,0.05,0.3q0.25,1.15,1.1,1.15q2.6,0,9.5-8.6q0.15-0.2,0.35-0.2t0.2,0.375t-0.45,0.975q-6.4,8.55-9.75,8.55q-0.45,0-0.85-0.15q-2.2-0.85-2.2-3.3q0-0.85,0.2-1.7l-3.1,3q-2.95,2.6-4.275,2.6t-2.525-0.85q-1.35-1-1.35-2.65q0-3.65,5.1-8.725t9.35-5.075q1.65,0,2.2,1.15q0.15,0.4,0.25,0.675t0.15,0.275z M40.1585,66.35q0,1.8,1.25,1.8q2.9,0,7.9-6.35l5.3-7.3q-0.4-0.7-1.3-0.7q-3.05,0-8.1,4.725t-5.05,7.825z M69.367,53.2q1.35,0,1.35,1.05q0,0.3-0.15,0.6q-4.5,6.25-5.4,9.45q11.65-11.65,14.15-11.65q0.25-0.05,0.45-0.05q1.4,0,1.4,1.25q0,0.25-0.1,0.5t-2,2.7q-2.2,2.6-3.725,5t-1.525,4t0.7,1.6q2.2,0,7.65-6.05q0.1-0.1,0.35-0.45q0.75-0.9,0.9-0.9t0.15,0.5t-0.7,1.3q-6.2,7.05-8.8,7.05q-2.45,0-2.45-2.7t2-6.2l3.2-5.2q-3.4,2.5-6.05,5.475t-4.825,5.775t-2.525,2.8q-0.75,0-1.175-0.625t-0.425-1.55t0.65-2.475t1.65-3.75l-3,3.15q-1.1,1.1-1.375,1.1t-0.275-0.325t0.4-0.725q1.85-1.85,3.2-3.55q1.3-1.7,5.35-6.5q0.45-0.6,0.95-0.6z M96.7255,52.9l7.2-0.1q0.15,0.1,0.15,0.15q0,0.45-6.225,1.25t-6.725,0.95q-0.95,0.85-3.5,5.075t-2.55,6.175q0,1.85,2.55,1.85q1.2,0,3.15-0.75t3-1.4q2.8-1.75,6-5.15q0.7-0.7,0.95-0.7q0.15,0,0.15,0.3t-0.75,1.2q-2.6,3.2-5.85,5.15q-3.9,2.4-7.45,2.4q-1.55,0-2.525-0.675t-0.975-2.725t1.8-5.625t2.75-5.325q-0.7,0.15-1.2,0.15q-1.45,0-1.45-1.15q0-0.85,1.2-1.2q0.15,0,0.45-0.05l2.9,0q0.9-1.15,2.05-2.65q1.4-1.8,1.9-1.8t1.25,0.4t0.75,0.95t-2.4,3.25q1.3,0.05,3.4,0.05z M113.784,58.4q0,1.75-3.35,5.85q-3.95,4.85-6.75,4.85l-0.8,0q-1.3,0-2.05-1.35q-0.6-0.95-0.6-2.1q0-3,4.375-8.425t7.075-5.425q2.55,0,2.55,2.7q0,0.7-0.25,1.8q0.05,0.15,0.95,0.15t2.75-0.95q-0.05,0.85-3.95,2.45q0.05,0.2,0.05,0.45z M110.534,55.8q-1.7,0-4.825,4t-3.125,5.9t1.2,1.9q2.15,0,5.45-3.9t3.3-5.6q-0.8-0.45-2-2.3z M125.0425,53.2q1.35,0,1.35,1.05q0,0.3-0.15,0.6q-4.5,6.25-5.4,9.45q11.65-11.65,14.15-11.65q0.25-0.05,0.45-0.05q1.4,0,1.4,1.25q0,0.25-0.1,0.5t-2,2.7q-2.2,2.6-3.725,5t-1.525,4t0.7,1.6q2.2,0,7.65-6.05q0.1-0.1,0.35-0.45q0.75-0.9,0.9-0.9t0.15,0.5t-0.7,1.3q-6.2,7.05-8.8,7.05q-2.45,0-2.45-2.7t2-6.2l3.2-5.2q-3.4,2.5-6.05,5.475t-4.825,5.775t-2.525,2.8q-0.75,0-1.175-0.625t-0.425-1.55t0.65-2.475t1.65-3.75l-3,3.15q-1.1,1.1-1.375,1.1t-0.275-0.325t0.4-0.725q1.85-1.85,3.2-3.55q1.3-1.7,5.35-6.5q0.45-0.6,0.95-0.6z"/><path fill="#8e9599" d="M176.55,47.6q-1.85,0.75-3.175,0.75t-1.325-0.55q0-0.35,1.475-0.4t2.125-0.35q1.9-1,1.9-2.95q0-1-0.55-2.1q-1.6-2.85-7.75-2.85q-3.55,0-7.1,1.075t-5.95,3.3t-2.4,4.125q0,2.9,5.75,4.25l5.9,1.1q3.55,0.65,5.3,1.8q2.3,1.4,2.3,4q0,1.05-0.35,2.25q-1.6,5.4-8.25,8.25q-5.55,2.45-13.1,2.45q-2.15,0-3.75-0.2q1.6,0.9,4.2,1.55q0.2,0.05,0.2,0.2q0,0.45-1.05,0.45q-2.05,0-5.1-2.45q-4.15-0.65-6.2-2.3q-1.3-1.05-2.4-3.1t-1.1-3.7t0.65-2.75q1.5-2.65,3.8-2.65q1.75,0,2.05,2.95q0.7,5.7,0.95,6.5q0.75,2.45,2.55,4.15q2.1,0.45,4.55,0.45q5.4,0,10.6-2.15t7.5-6.1q0.95-1.55,0.95-2.75q0-2.35-4.15-3.65l-8.8-2q-2.7-0.65-4.325-2.15t-1.625-3.45q0-3,3.75-6q2.85-2.3,6.975-3.575t8.1-1.275t6.575,1.15q3.35,1.55,3.35,4.525t-3.05,4.175z M144.35,69.9q-2.9-3.2-3.7-8.75q-0.45-3.15-0.85-3.15t-0.75,0.225t-0.7,0.975t-0.35,1.95q0,3.85,2.7,6.6q1.35,1.4,3.65,2.15z M190.6085,69.3q-0.25,0.05-1.075,0.05t-1.65-0.65t-0.825-1.675t0.375-2.275t0.525-1.9q-5.75,6.7-9,6.7q-2.05,0-2.25-2.55l0-0.35q0-2.15,2.6-5.8q-1.45,1.3-2.95,3q-0.2,0.2-0.5,0.2q-0.2,0-0.2-0.25t0.45-0.85l6.9-8.1q1.3-1.5,2.65-1.5t1.35,0.9q0,0.35-0.3,0.65q-2,1.85-5.025,6.15t-3.025,6.35q0,0.9,0.6,0.9q2.1,0,6.1-4.15q1.4-1.4,5.2-6.175t5-4.775q1.8,0,1.8,1.4q0,0.5-2.1,2.9q-2.85,3.45-4.35,5.625t-1.5,3.525t0.75,1.35q0.35,0,0.8-0.2q3.45-1.5,8.25-7q0.3-0.35,0.6-0.35t0.3,0.325t-0.35,0.725q-2.15,2.5-5.05,5.025t-4.1,2.775z M218.917,57.7q0,4.05-4.625,7.675t-8.025,3.625q-2.25,0-3.275-0.3t-2.275-1.8q-0.85,0.7-2.3,3.575t-1.45,4.925q0,0.95,0.95,2.5q0.1,0.25-0.15,0.425t-0.375,0.175t-0.225-0.05q-2.1-1.15-2.1-4.475t5.525-11.5t7.625-8.875q0.5-0.1,0.65-0.1q0.85,0,0.85,1.85q0.5-0.5,2.05-0.95q1.9-0.5,2.7-0.5q1.8,0,3.125,1.025t1.325,2.775z M216.367,57.2q0-1.9-2.25-1.9t-4.1,0.95q-0.85,0.4-4.7,4.4t-3.85,5.15q0,0.9,1.375,1.35t2.775,0.45q2.75,0,6.75-3.125t4-7.275z M223.6755,69.65q-0.55,0-1-0.15q-3.2-0.9-3.2-3.6q0-3.5,4.4-8.1t7.9-4.6q1.15,0,1.875,0.625t0.725,1.525q0,2.8-4.225,5.35t-6.875,2.55q-0.4,0-0.7-0.1q-0.75,1.35-0.75,2.85q0,2.6,2.475,2.6t6.425-3.35q3.05-2.45,5.2-5.2q0.45-0.6,0.775-0.6t0.325,0.3t-0.4,0.85q-2.7,3.55-6.5,6.3t-6.45,2.75z M233.1255,55.25q0-0.6-1.275-0.6t-3.625,1.95q-3.15,2.6-4.9,5.45q0.3,0.1,0.65,0.1q1.9,0,5.075-2.025t3.975-4.425q0.1-0.25,0.1-0.45z M246.384,69.25q-3.75,0-3.75-4.15q0-2.1,1.1-4.6t2.4-4.2q-0.25,0.05-0.65,0.05q-1.2,0-2-1.7l-3.7,4.8q-3.1,3.85-3.6,3.85q-0.25,0-0.25-0.2q0-0.5,0.85-1.45q4.35-5.05,6.15-8.55q1.15-4.35,2.9-4.35q1.15,0,1.15,1t-1.25,2.55l-1.2,1.6q0,1.05,1.55,1.05q0.9,0,2-0.65l1.3-0.8q0.1-0.05,0.5-0.05t0.85,0.5t0.3,0.9l-3.45,4.35q-3.2,4.1-3.2,6.475t2.2,2.375q2.3,0,5.65-2.45q2-1.45,3.65-3.25q1.55-1.8,1.7-1.8q0.35,0,0.35,0.375t-0.45,0.875l-1.6,1.8q-1.35,1.4-3,2.7q-3.95,2.95-6.5,2.95z"/></svg>
